PathFileType	4	(X/Y/Z)	E:\Qualisys_Data\Carbon_Farble_Plate\Data\Amateur_Runner\S2\T1\S2T1V21_c3d.trc
DataRate	CameraRate	NumFrames	NumMarkers	Units	OrigDataRate	OrigDataStartFrame	OrigNumFrames
200.000000	200.000000	4	39	mm	200.000000	236	315
Frame#	Time	LSHO			RSHO			LICST			RICST			LASIS			LHEEL			RASIS			LTROC			RTROC			SACR			LTH1			LSK4			LTH2			LTH3			RHM5			LSK2			LTH4			RTH1			LTOE			RTH2			RTH3			RTH4			LLEP			RLEP			LSK1			LSK3			RSK1			LHM5			RSK2			LFT1			RSK3			RSK4			LLME			RLME			RTOE			RHEEL			RFT1			RFT2			LFT2			
		X1	Y1	Z1	X2	Y2	Z2	X3	Y3	Z3	X4	Y4	Z4	X5	Y5	Z5	X6	Y6	Z6	X7	Y7	Z7	X8	Y8	Z8	X9	Y9	Z9	X10	Y10	Z10	X11	Y11	Z11	X12	Y12	Z12	X13	Y13	Z13	X14	Y14	Z14	X15	Y15	Z15	X16	Y16	Z16	X17	Y17	Z17	X18	Y18	Z18	X19	Y19	Z19	X20	Y20	Z20	X21	Y21	Z21	X22	Y22	Z22	X23	Y23	Z23	X24	Y24	Z24	X25	Y25	Z25	X26	Y26	Z26	X27	Y27	Z27	X28	Y28	Z28	X29	Y29	Z29	X30	Y30	Z30	X31	Y31	Z31	X32	Y32	Z32	X33	Y33	Z33	X34	Y34	Z34	X35	Y35	Z35	X36	Y36	Z36	X37	Y37	Z37	X38	Y38	Z38	X39	Y39	Z39	

237	1.18	1525.98583984375	1443.984497070312	-453.1996459960938	1601.1640625	1439.51318359375	-162.6995697021484	1538.536010742188	980.6927490234376	-422.6193542480469	1569.306884765625	974.5013427734376	-123.9058685302734	1598.982299804688	934.3466186523438	-404.3233032226562	1699.152954101562	71.00711822509766	-279.7604675292969	1623.698486328125	924.6435546875	-148.0306396484375	1482.23828125	854.2186279296875	-425.0125122070312	1466.813354492188	884.081787109375	-109.928825378418	1457.786010742188	1018.074768066406	-262.8391418457031	1683.620361328125	647.7273559570312	-425.8047180175781	1675.16015625	260.9385070800781	-379.2733459472656	1606.928955078125	616.7086791992188	-423.85986328125	1720.520263671875	557.73974609375	-389.5214233398438	955.390625	404.3139038085938	-162.4045715332031	1665.025390625	357.8518981933594	-397.460693359375	1641.239013671875	527.7915649414062	-390.9649963378906	1531.539672851562	602.8211059570312	-98.66746520996094	1921.689697265625	149.3618011474609	-318.6042785644531	1456.773559570312	623.917724609375	-104.3545684814453	1505.536987304688	505.3335571289062	-104.4385528564453	1429.2587890625	529.2554931640625	-118.4090805053711	1695.570434570312	500.4077758789062	-388.4441223144531	1442.30224609375	493.619873046875	-106.4355316162109	1743.023803710938	367.4376831054688	-389.427734375	1754.023803710938	269.6827697753906	-374.9341125488281	1337.9384765625	447.3970947265625	-113.6793670654297	1880.575561523438	100.2718887329102	-374.7433776855469	1340.47265625	528.6327514648438	-115.1329040527344	1720.584716796875	54.33622741699219	-250.7828826904297	1237.368041992188	450.362548828125	-133.7170562744141	1243.79248046875	529.586669921875	-138.7719573974609	1747.834350585938	90.53479766845705	-342.0299987792969	1063.166870117188	498.9701538085938	-189.1565093994141	964.6505126953124	331.1316223144531	-204.9159240722656	1081.494750976562	541.3789672851562	-258.3676452636719	1062.757690429688	528.5535888671875	-292.5249938964844	1055.83203125	557.3388061523438	-240.8237915039062	1710.626708984375	42.18333053588867	-303.3117980957031
238	1.185	1547.398559570312	1437.566650390625	-454.4976501464844	1621.784423828125	1434.189453125	-163.0850677490234	1557.74560546875	975.4708251953124	-422.5072631835938	1589.6494140625	968.8916625976562	-123.5277938842773	1618.519653320312	929.5631713867188	-404.6824645996094	1708.39013671875	71.12670135498047	-275.2255249023438	1643.821166992188	919.1543579101562	-148.1304473876953	1501.382202148438	849.0628051757812	-424.3267211914062	1487.755859375	877.4403686523438	-109.2412719726562	1477.590087890625	1012.71142578125	-262.765380859375	1705.951904296875	645.9749755859375	-422.4260864257812	1690.405883789062	256.3692016601562	-377.5956115722656	1629.347534179688	615.8018798828125	-420.4555969238281	1742.3330078125	554.9549560546875	-387.7784118652344	985.0355224609376	409.2723693847656	-162.3699188232422	1682.082885742188	353.630126953125	-396.2141723632812	1662.999267578125	525.6665649414062	-390.09326171875	1557.62890625	597.1507568359375	-97.38641357421876	1932.018798828125	135.0167236328125	-314.4800720214844	1482.78662109375	616.7310791015625	-102.7690658569336	1533.197265625	499.1529235839844	-102.6464996337891	1456.701293945312	522.1571044921875	-115.6165618896484	1715.873291015625	496.6890258789062	-387.0284118652344	1470.549194335938	486.7613220214844	-103.4897842407227	1760.393676757812	361.693603515625	-387.9858703613281	1769.553833007812	263.5709838867188	-373.171875	1366.3544921875	442.4302978515625	-112.2233123779297	1888.310180664062	89.62107849121094	-371.9594421386719	1370.849365234375	524.1432495117188	-113.5441131591797	1728.283325195312	50.85187530517578	-248.2274169921875	1266.015625	448.2673645019531	-133.3175811767578	1274.52197265625	527.7662353515625	-137.8875579833984	1756.215209960938	87.89350891113281	-340.2083435058594	1093.765014648438	502.7132568359375	-189.2700500488281	993.5054321289062	336.0003662109375	-204.3836059570312	1112.8232421875	544.3150634765625	-258.8283081054688	1093.860229492188	531.2957763671875	-292.8988952636719	1087.182861328125	560.5833129882812	-241.2415008544922	1716.130615234375	44.47728729248047	-299.8782653808594
239	1.19	1569.139892578125	1430.837890625	-455.6369018554688	1642.048217773438	1428.41455078125	-163.0286254882812	1576.7861328125	970.4480590820312	-422.2651062011719	1609.708984375	963.2000122070312	-123.4906158447266	1637.64990234375	924.83447265625	-405.2059936523438	1714.287353515625	72.5680160522461	-276.3218994140625	1664.22607421875	913.8727416992188	-148.7690582275391	1520.523193359375	843.7485961914062	-423.6271057128906	1509.151733398438	870.1260375976562	-108.5246124267578	1497.327270507812	1006.689636230469	-261.9378967285156	1728.223022460938	643.9229125976562	-418.3960571289062	1704.844116210938	252.0472412109375	-376.5339660644531	1651.94482421875	614.3319091796875	-417.6773986816406	1764.1513671875	551.9183959960938	-386.6999816894531	1015.733825683594	413.5764770507812	-162.0552825927734	1699.507202148438	349.6665649414062	-395.5442504882812	1684.711547851562	523.278564453125	-389.4985961914062	1583.949096679688	591.6314086914062	-95.8087158203125	1942.658935546875	119.2705688476562	-310.3944396972656	1508.4208984375	609.6101684570312	-101.3187484741211	1561.138549804688	493.0065002441406	-100.8633041381836	1484.344848632812	514.7771606445312	-112.7803726196289	1736.158325195312	491.9397277832031	-386.0903930664062	1499.424560546875	479.5693054199219	-101.399040222168	1777.612060546875	355.7052917480469	-386.7476501464844	1784.476196289062	257.4165954589844	-371.2347717285156	1394.802490234375	437.6871337890625	-111.9691467285156	1896.178955078125	77.57695770263672	-367.9600219726562	1401.653076171875	519.27880859375	-111.996467590332	1733.361572265625	49.04639434814453	-247.7546234130859	1295.451416015625	446.1874389648438	-132.6536254882812	1305.887573242188	525.257080078125	-137.0980834960938	1764.940307617188	84.66022491455078	-337.9859313964844	1125.077514648438	504.7958068847656	-189.9644165039062	1023.530639648438	340.0376281738281	-204.4209289550781	1144.8779296875	546.9900512695312	-258.6854553222656	1125.717651367188	534.2362060546875	-292.9949645996094	1119.476928710938	563.5577392578125	-241.6345062255859	1719.567749023438	41.59188461303711	-300.5482788085938
240	1.195	1591.089477539062	1424.139892578125	-456.9321899414062	1662.4560546875	1422.704467773438	-163.4393157958984	1595.305908203125	965.2584228515624	-422.5058898925781	1629.4521484375	957.1243286132812	-123.3021011352539	1656.8349609375	920.0591430664062	-405.6506652832031	1719.311157226562	71.58202362060547	-277.1835327148438	1684.423828125	908.3359375	-149.1760559082031	1539.86962890625	838.3533935546875	-423.2381286621094	1530.289428710938	862.6514892578125	-108.1411895751953	1516.595092773438	1001.035217285156	-261.79296875	1750.201049804688	641.0545043945312	-412.585693359375	1719.830688476562	247.8404083251953	-374.8276672363281	1674.419799804688	610.5891723632812	-417.9472045898438	1785.713134765625	548.2464599609375	-385.7098083496094	1046.683471679688	416.8318176269531	-161.5331573486328	1716.917114257812	345.3750915527344	-394.438720703125	1706.261962890625	519.6094360351562	-388.7523193359375	1610.454711914062	586.0074462890625	-94.6494140625	1952.825561523438	104.0792694091797	-305.8892211914062	1534.634521484375	602.3304443359375	-99.27764129638672	1589.559936523438	486.3193664550781	-99.93610382080078	1512.12255859375	506.8727111816406	-110.1203079223633	1756.14306640625	486.9668273925781	-385.5375366210938	1528.543334960938	472.92041015625	-98.62141418457033	1795.194702148438	349.748779296875	-384.5776672363281	1799.45849609375	251.2226715087891	-368.8426513671875	1424.51611328125	433.4361267089844	-109.8346939086914	1904.599487304688	65.6771469116211	-364.6495666503906	1433.0673828125	514.7139892578125	-109.8155136108398	1735.628662109375	48.01374816894531	-248.2436981201172	1324.851928710938	444.4603271484375	-131.4027099609375	1337.5146484375	522.869140625	-136.571533203125	1771.803466796875	80.9906997680664	-337.5534973144531	1156.78515625	507.3959350585938	-189.4383544921875	1053.731567382812	343.1736755371094	-204.3813934326172	1177.072631835938	549.3124389648438	-258.3684997558594	1157.744384765625	536.5516357421875	-292.3130493164062	1152.25830078125	566.1870727539062	-240.9501342773438	1723.096801757812	40.77324676513672	-300.6609497070312
